<mxfile host="app.diagrams.net" modified="2023-11-26T06:07:46.654Z" agent="Mozilla/5.0 (Macintosh; Intel Mac OS X 10_15_7) AppleWebKit/605.1.15 (KHTML, like Gecko) Version/15.3 Safari/605.1.15" etag="RxgaQDeO04FbaXu3YAY1" version="22.1.3" type="github">
  <diagram name="第 1 页" id="flrFkAzzh4sRucV4Xojh">
    <mxGraphModel dx="2261" dy="827" grid="1" gridSize="10" guides="1" tooltips="1" connect="1" arrows="1" fold="1" page="1" pageScale="1" pageWidth="827" pageHeight="1169" math="0" shadow="0">
      <root>
        <mxCell id="0" />
        <mxCell id="1" parent="0" />
        <mxCell id="u0BOKyI3YEC1JE8kHhpO-96" value="" style="rounded=0;whiteSpace=wrap;html=1;" vertex="1" parent="1">
          <mxGeometry x="-100" y="760" width="1360" height="750" as="geometry" />
        </mxCell>
        <mxCell id="u0BOKyI3YEC1JE8kHhpO-47" value="" style="rounded=0;whiteSpace=wrap;html=1;" vertex="1" parent="1">
          <mxGeometry x="20" y="380" width="820" height="320" as="geometry" />
        </mxCell>
        <mxCell id="u0BOKyI3YEC1JE8kHhpO-16" style="edgeStyle=orthogonalEdgeStyle;rounded=0;orthogonalLoop=1;jettySize=auto;html=1;exitX=1;exitY=0.5;exitDx=0;exitDy=0;" edge="1" parent="1" source="u0BOKyI3YEC1JE8kHhpO-1" target="u0BOKyI3YEC1JE8kHhpO-2">
          <mxGeometry relative="1" as="geometry" />
        </mxCell>
        <mxCell id="u0BOKyI3YEC1JE8kHhpO-1" value="producer" style="rounded=0;whiteSpace=wrap;html=1;fillColor=#ffe6cc;strokeColor=#d79b00;" vertex="1" parent="1">
          <mxGeometry x="60" y="175" width="120" height="60" as="geometry" />
        </mxCell>
        <mxCell id="u0BOKyI3YEC1JE8kHhpO-13" value="1 消费消息" style="edgeStyle=orthogonalEdgeStyle;rounded=0;orthogonalLoop=1;jettySize=auto;html=1;exitX=1;exitY=0.5;exitDx=0;exitDy=0;entryX=0.5;entryY=1;entryDx=0;entryDy=0;" edge="1" parent="1" source="u0BOKyI3YEC1JE8kHhpO-2" target="u0BOKyI3YEC1JE8kHhpO-12">
          <mxGeometry relative="1" as="geometry">
            <Array as="points">
              <mxPoint x="585" y="205" />
              <mxPoint x="585" y="310" />
              <mxPoint x="700" y="310" />
            </Array>
          </mxGeometry>
        </mxCell>
        <mxCell id="u0BOKyI3YEC1JE8kHhpO-2" value="" style="rounded=0;whiteSpace=wrap;html=1;fillColor=#f8cecc;strokeColor=#b85450;" vertex="1" parent="1">
          <mxGeometry x="260" y="120" width="270" height="170" as="geometry" />
        </mxCell>
        <mxCell id="u0BOKyI3YEC1JE8kHhpO-3" value="Message Queue" style="text;html=1;strokeColor=none;fillColor=none;align=center;verticalAlign=middle;whiteSpace=wrap;rounded=0;" vertex="1" parent="1">
          <mxGeometry x="337.5" y="130" width="115" height="30" as="geometry" />
        </mxCell>
        <mxCell id="u0BOKyI3YEC1JE8kHhpO-5" value="1" style="rounded=0;whiteSpace=wrap;html=1;" vertex="1" parent="1">
          <mxGeometry x="465" y="180" width="50" height="45" as="geometry" />
        </mxCell>
        <mxCell id="u0BOKyI3YEC1JE8kHhpO-6" value="2" style="rounded=0;whiteSpace=wrap;html=1;" vertex="1" parent="1">
          <mxGeometry x="397.5" y="180" width="50" height="45" as="geometry" />
        </mxCell>
        <mxCell id="u0BOKyI3YEC1JE8kHhpO-9" value="3" style="rounded=0;whiteSpace=wrap;html=1;" vertex="1" parent="1">
          <mxGeometry x="335" y="180" width="50" height="45" as="geometry" />
        </mxCell>
        <mxCell id="u0BOKyI3YEC1JE8kHhpO-10" value="4" style="rounded=0;whiteSpace=wrap;html=1;" vertex="1" parent="1">
          <mxGeometry x="275" y="180" width="50" height="45" as="geometry" />
        </mxCell>
        <mxCell id="u0BOKyI3YEC1JE8kHhpO-11" value="3 删除" style="text;html=1;strokeColor=none;fillColor=none;align=center;verticalAlign=middle;whiteSpace=wrap;rounded=0;" vertex="1" parent="1">
          <mxGeometry x="455" y="260" width="60" height="30" as="geometry" />
        </mxCell>
        <mxCell id="u0BOKyI3YEC1JE8kHhpO-12" value="consumer" style="rounded=0;whiteSpace=wrap;html=1;fillColor=#dae8fc;strokeColor=#6c8ebf;" vertex="1" parent="1">
          <mxGeometry x="640" y="180" width="120" height="60" as="geometry" />
        </mxCell>
        <mxCell id="u0BOKyI3YEC1JE8kHhpO-14" style="edgeStyle=orthogonalEdgeStyle;rounded=0;orthogonalLoop=1;jettySize=auto;html=1;exitX=0.5;exitY=0;exitDx=0;exitDy=0;entryX=1.004;entryY=0.141;entryDx=0;entryDy=0;entryPerimeter=0;" edge="1" parent="1" source="u0BOKyI3YEC1JE8kHhpO-12" target="u0BOKyI3YEC1JE8kHhpO-2">
          <mxGeometry relative="1" as="geometry" />
        </mxCell>
        <mxCell id="u0BOKyI3YEC1JE8kHhpO-15" value="2 确认收到" style="edgeLabel;html=1;align=center;verticalAlign=middle;resizable=0;points=[];" vertex="1" connectable="0" parent="u0BOKyI3YEC1JE8kHhpO-14">
          <mxGeometry x="0.2102" y="2" relative="1" as="geometry">
            <mxPoint as="offset" />
          </mxGeometry>
        </mxCell>
        <mxCell id="u0BOKyI3YEC1JE8kHhpO-43" style="edgeStyle=none;rounded=0;orthogonalLoop=1;jettySize=auto;html=1;exitX=1;exitY=0.5;exitDx=0;exitDy=0;entryX=0;entryY=0.25;entryDx=0;entryDy=0;" edge="1" parent="1" source="u0BOKyI3YEC1JE8kHhpO-18" target="u0BOKyI3YEC1JE8kHhpO-20">
          <mxGeometry relative="1" as="geometry" />
        </mxCell>
        <mxCell id="u0BOKyI3YEC1JE8kHhpO-45" value="Topic1 主题1" style="edgeLabel;html=1;align=center;verticalAlign=middle;resizable=0;points=[];" vertex="1" connectable="0" parent="u0BOKyI3YEC1JE8kHhpO-43">
          <mxGeometry x="-0.0314" y="-3" relative="1" as="geometry">
            <mxPoint y="-1" as="offset" />
          </mxGeometry>
        </mxCell>
        <mxCell id="u0BOKyI3YEC1JE8kHhpO-44" style="edgeStyle=none;rounded=0;orthogonalLoop=1;jettySize=auto;html=1;exitX=1;exitY=0.5;exitDx=0;exitDy=0;entryX=0;entryY=0.75;entryDx=0;entryDy=0;" edge="1" parent="1" source="u0BOKyI3YEC1JE8kHhpO-18" target="u0BOKyI3YEC1JE8kHhpO-20">
          <mxGeometry relative="1" as="geometry" />
        </mxCell>
        <mxCell id="u0BOKyI3YEC1JE8kHhpO-46" value="Topic 主题2" style="edgeLabel;html=1;align=center;verticalAlign=middle;resizable=0;points=[];" vertex="1" connectable="0" parent="u0BOKyI3YEC1JE8kHhpO-44">
          <mxGeometry x="0.0666" y="-2" relative="1" as="geometry">
            <mxPoint as="offset" />
          </mxGeometry>
        </mxCell>
        <mxCell id="u0BOKyI3YEC1JE8kHhpO-18" value="producer" style="rounded=0;whiteSpace=wrap;html=1;fillColor=#ffe6cc;strokeColor=#d79b00;" vertex="1" parent="1">
          <mxGeometry x="60" y="490" width="120" height="60" as="geometry" />
        </mxCell>
        <mxCell id="u0BOKyI3YEC1JE8kHhpO-36" value="subscribe 订阅" style="rounded=0;orthogonalLoop=1;jettySize=auto;html=1;exitX=1;exitY=0.5;exitDx=0;exitDy=0;entryX=0;entryY=0.5;entryDx=0;entryDy=0;" edge="1" parent="1" source="u0BOKyI3YEC1JE8kHhpO-20" target="u0BOKyI3YEC1JE8kHhpO-27">
          <mxGeometry relative="1" as="geometry" />
        </mxCell>
        <mxCell id="u0BOKyI3YEC1JE8kHhpO-37" style="rounded=0;orthogonalLoop=1;jettySize=auto;html=1;exitX=1;exitY=0.5;exitDx=0;exitDy=0;entryX=0;entryY=0.5;entryDx=0;entryDy=0;" edge="1" parent="1" source="u0BOKyI3YEC1JE8kHhpO-20" target="u0BOKyI3YEC1JE8kHhpO-34">
          <mxGeometry relative="1" as="geometry" />
        </mxCell>
        <mxCell id="u0BOKyI3YEC1JE8kHhpO-39" value="subscribe 订阅" style="edgeLabel;html=1;align=center;verticalAlign=middle;resizable=0;points=[];" vertex="1" connectable="0" parent="u0BOKyI3YEC1JE8kHhpO-37">
          <mxGeometry x="0.1333" y="-2" relative="1" as="geometry">
            <mxPoint as="offset" />
          </mxGeometry>
        </mxCell>
        <mxCell id="u0BOKyI3YEC1JE8kHhpO-20" value="" style="rounded=0;whiteSpace=wrap;html=1;fillColor=#f8cecc;strokeColor=#b85450;" vertex="1" parent="1">
          <mxGeometry x="264" y="420" width="286" height="200" as="geometry" />
        </mxCell>
        <mxCell id="u0BOKyI3YEC1JE8kHhpO-21" value="Message Queue的Topic" style="text;html=1;strokeColor=none;fillColor=none;align=center;verticalAlign=middle;whiteSpace=wrap;rounded=0;" vertex="1" parent="1">
          <mxGeometry x="341.5" y="430" width="138.5" height="30" as="geometry" />
        </mxCell>
        <mxCell id="u0BOKyI3YEC1JE8kHhpO-22" value="1" style="rounded=0;whiteSpace=wrap;html=1;" vertex="1" parent="1">
          <mxGeometry x="469" y="480" width="50" height="45" as="geometry" />
        </mxCell>
        <mxCell id="u0BOKyI3YEC1JE8kHhpO-23" value="2" style="rounded=0;whiteSpace=wrap;html=1;" vertex="1" parent="1">
          <mxGeometry x="401.5" y="480" width="50" height="45" as="geometry" />
        </mxCell>
        <mxCell id="u0BOKyI3YEC1JE8kHhpO-24" value="3" style="rounded=0;whiteSpace=wrap;html=1;" vertex="1" parent="1">
          <mxGeometry x="339" y="480" width="50" height="45" as="geometry" />
        </mxCell>
        <mxCell id="u0BOKyI3YEC1JE8kHhpO-25" value="4" style="rounded=0;whiteSpace=wrap;html=1;" vertex="1" parent="1">
          <mxGeometry x="279" y="480" width="50" height="45" as="geometry" />
        </mxCell>
        <mxCell id="u0BOKyI3YEC1JE8kHhpO-27" value="consumer" style="rounded=0;whiteSpace=wrap;html=1;fillColor=#dae8fc;strokeColor=#6c8ebf;" vertex="1" parent="1">
          <mxGeometry x="670" y="405" width="120" height="60" as="geometry" />
        </mxCell>
        <mxCell id="u0BOKyI3YEC1JE8kHhpO-30" value="1" style="rounded=0;whiteSpace=wrap;html=1;" vertex="1" parent="1">
          <mxGeometry x="469" y="540" width="50" height="45" as="geometry" />
        </mxCell>
        <mxCell id="u0BOKyI3YEC1JE8kHhpO-31" value="2" style="rounded=0;whiteSpace=wrap;html=1;" vertex="1" parent="1">
          <mxGeometry x="401.5" y="540" width="50" height="45" as="geometry" />
        </mxCell>
        <mxCell id="u0BOKyI3YEC1JE8kHhpO-32" value="3" style="rounded=0;whiteSpace=wrap;html=1;" vertex="1" parent="1">
          <mxGeometry x="339" y="540" width="50" height="45" as="geometry" />
        </mxCell>
        <mxCell id="u0BOKyI3YEC1JE8kHhpO-33" value="4" style="rounded=0;whiteSpace=wrap;html=1;" vertex="1" parent="1">
          <mxGeometry x="279" y="540" width="50" height="45" as="geometry" />
        </mxCell>
        <mxCell id="u0BOKyI3YEC1JE8kHhpO-34" value="consumer" style="rounded=0;whiteSpace=wrap;html=1;fillColor=#dae8fc;strokeColor=#6c8ebf;" vertex="1" parent="1">
          <mxGeometry x="670" y="490" width="120" height="60" as="geometry" />
        </mxCell>
        <mxCell id="u0BOKyI3YEC1JE8kHhpO-35" value="consumer" style="rounded=0;whiteSpace=wrap;html=1;fillColor=#dae8fc;strokeColor=#6c8ebf;" vertex="1" parent="1">
          <mxGeometry x="670" y="575" width="120" height="60" as="geometry" />
        </mxCell>
        <mxCell id="u0BOKyI3YEC1JE8kHhpO-38" style="rounded=0;orthogonalLoop=1;jettySize=auto;html=1;exitX=1;exitY=0.5;exitDx=0;exitDy=0;entryX=-0.008;entryY=0.4;entryDx=0;entryDy=0;entryPerimeter=0;" edge="1" parent="1" source="u0BOKyI3YEC1JE8kHhpO-20" target="u0BOKyI3YEC1JE8kHhpO-35">
          <mxGeometry relative="1" as="geometry" />
        </mxCell>
        <mxCell id="u0BOKyI3YEC1JE8kHhpO-40" value="subscribe 订阅" style="edgeLabel;html=1;align=center;verticalAlign=middle;resizable=0;points=[];" vertex="1" connectable="0" parent="u0BOKyI3YEC1JE8kHhpO-38">
          <mxGeometry x="-0.0254" y="2" relative="1" as="geometry">
            <mxPoint as="offset" />
          </mxGeometry>
        </mxCell>
        <mxCell id="u0BOKyI3YEC1JE8kHhpO-94" style="edgeStyle=none;rounded=0;orthogonalLoop=1;jettySize=auto;html=1;exitX=0.5;exitY=0;exitDx=0;exitDy=0;entryX=0.5;entryY=1;entryDx=0;entryDy=0;" edge="1" parent="1" source="u0BOKyI3YEC1JE8kHhpO-48" target="u0BOKyI3YEC1JE8kHhpO-89">
          <mxGeometry relative="1" as="geometry" />
        </mxCell>
        <mxCell id="u0BOKyI3YEC1JE8kHhpO-95" value="&lt;div style=&quot;text-align: start; font-size: 14px;&quot;&gt;&lt;font style=&quot;font-size: 14px;&quot;&gt;/broker/ids/[0,1,2]&lt;/font&gt;&lt;/div&gt;&lt;div style=&quot;text-align: start; font-size: 14px;&quot;&gt;&lt;font style=&quot;font-size: 14px;&quot;&gt;/brokers/topics/first/partitions/0/state&quot;leader&quot;:0,&quot;sir&quot;:[0,2]&lt;/font&gt;&lt;/div&gt;" style="edgeLabel;html=1;align=center;verticalAlign=middle;resizable=0;points=[];" vertex="1" connectable="0" parent="u0BOKyI3YEC1JE8kHhpO-94">
          <mxGeometry x="-0.069" y="3" relative="1" as="geometry">
            <mxPoint as="offset" />
          </mxGeometry>
        </mxCell>
        <mxCell id="u0BOKyI3YEC1JE8kHhpO-48" value="" style="rounded=0;whiteSpace=wrap;html=1;" vertex="1" parent="1">
          <mxGeometry x="-40" y="920" width="1200" height="550" as="geometry" />
        </mxCell>
        <mxCell id="u0BOKyI3YEC1JE8kHhpO-49" value="" style="rounded=0;whiteSpace=wrap;html=1;fillColor=#647687;fontColor=#ffffff;strokeColor=#314354;" vertex="1" parent="1">
          <mxGeometry x="120" y="970" width="700" height="470" as="geometry" />
        </mxCell>
        <mxCell id="u0BOKyI3YEC1JE8kHhpO-57" value="" style="rounded=0;whiteSpace=wrap;html=1;fillColor=#bac8d3;strokeColor=#23445d;" vertex="1" parent="1">
          <mxGeometry x="169.5" y="995" width="561" height="110" as="geometry" />
        </mxCell>
        <mxCell id="u0BOKyI3YEC1JE8kHhpO-82" style="edgeStyle=none;rounded=0;orthogonalLoop=1;jettySize=auto;html=1;exitX=1;exitY=0.5;exitDx=0;exitDy=0;" edge="1" parent="1" source="u0BOKyI3YEC1JE8kHhpO-50" target="u0BOKyI3YEC1JE8kHhpO-72">
          <mxGeometry relative="1" as="geometry" />
        </mxCell>
        <mxCell id="u0BOKyI3YEC1JE8kHhpO-87" style="edgeStyle=none;rounded=0;orthogonalLoop=1;jettySize=auto;html=1;exitX=0;exitY=0.5;exitDx=0;exitDy=0;entryX=1;entryY=0.5;entryDx=0;entryDy=0;" edge="1" parent="1" source="u0BOKyI3YEC1JE8kHhpO-50" target="u0BOKyI3YEC1JE8kHhpO-85">
          <mxGeometry relative="1" as="geometry" />
        </mxCell>
        <mxCell id="u0BOKyI3YEC1JE8kHhpO-50" value="TopicA-Partition0" style="rounded=0;whiteSpace=wrap;html=1;fillColor=#008a00;fontColor=#ffffff;strokeColor=#005700;" vertex="1" parent="1">
          <mxGeometry x="228" y="1020" width="120" height="60" as="geometry" />
        </mxCell>
        <mxCell id="u0BOKyI3YEC1JE8kHhpO-58" value="" style="rounded=0;whiteSpace=wrap;html=1;fillColor=#bac8d3;strokeColor=#23445d;" vertex="1" parent="1">
          <mxGeometry x="170" y="1120" width="560" height="120" as="geometry" />
        </mxCell>
        <mxCell id="u0BOKyI3YEC1JE8kHhpO-65" style="edgeStyle=none;rounded=0;orthogonalLoop=1;jettySize=auto;html=1;exitX=1;exitY=0.5;exitDx=0;exitDy=0;entryX=0;entryY=0.5;entryDx=0;entryDy=0;" edge="1" parent="1" source="u0BOKyI3YEC1JE8kHhpO-51" target="u0BOKyI3YEC1JE8kHhpO-53">
          <mxGeometry relative="1" as="geometry" />
        </mxCell>
        <mxCell id="u0BOKyI3YEC1JE8kHhpO-51" value="TopicA-Partition1" style="rounded=0;whiteSpace=wrap;html=1;fillColor=#1ba1e2;fontColor=#ffffff;strokeColor=#006EAF;" vertex="1" parent="1">
          <mxGeometry x="229" y="1140" width="120" height="60" as="geometry" />
        </mxCell>
        <mxCell id="u0BOKyI3YEC1JE8kHhpO-59" value="" style="rounded=0;whiteSpace=wrap;html=1;fillColor=#bac8d3;strokeColor=#23445d;" vertex="1" parent="1">
          <mxGeometry x="170" y="1260" width="560" height="120" as="geometry" />
        </mxCell>
        <mxCell id="u0BOKyI3YEC1JE8kHhpO-66" style="edgeStyle=none;rounded=0;orthogonalLoop=1;jettySize=auto;html=1;exitX=1;exitY=0.5;exitDx=0;exitDy=0;entryX=0;entryY=0.5;entryDx=0;entryDy=0;" edge="1" parent="1" source="u0BOKyI3YEC1JE8kHhpO-52" target="u0BOKyI3YEC1JE8kHhpO-54">
          <mxGeometry relative="1" as="geometry" />
        </mxCell>
        <mxCell id="u0BOKyI3YEC1JE8kHhpO-52" value="TopicA-Partition2" style="rounded=0;whiteSpace=wrap;html=1;fillColor=#6a00ff;fontColor=#ffffff;strokeColor=#3700CC;" vertex="1" parent="1">
          <mxGeometry x="231.5" y="1280" width="120" height="60" as="geometry" />
        </mxCell>
        <mxCell id="u0BOKyI3YEC1JE8kHhpO-53" value="TopicA-Partition1" style="rounded=0;whiteSpace=wrap;html=1;fillColor=#1ba1e2;fontColor=#ffffff;strokeColor=#006EAF;" vertex="1" parent="1">
          <mxGeometry x="520" y="1020" width="120" height="60" as="geometry" />
        </mxCell>
        <mxCell id="u0BOKyI3YEC1JE8kHhpO-54" value="TopicA-Partition2" style="rounded=0;whiteSpace=wrap;html=1;fillColor=#6a00ff;fontColor=#ffffff;strokeColor=#3700CC;" vertex="1" parent="1">
          <mxGeometry x="521" y="1140" width="120" height="60" as="geometry" />
        </mxCell>
        <mxCell id="u0BOKyI3YEC1JE8kHhpO-88" style="edgeStyle=none;rounded=0;orthogonalLoop=1;jettySize=auto;html=1;exitX=0;exitY=0.5;exitDx=0;exitDy=0;entryX=1;entryY=0.5;entryDx=0;entryDy=0;" edge="1" parent="1" source="u0BOKyI3YEC1JE8kHhpO-55" target="u0BOKyI3YEC1JE8kHhpO-86">
          <mxGeometry relative="1" as="geometry" />
        </mxCell>
        <mxCell id="u0BOKyI3YEC1JE8kHhpO-55" value="TopicA-Partition0" style="rounded=0;whiteSpace=wrap;html=1;fillColor=#008a00;fontColor=#ffffff;strokeColor=#005700;" vertex="1" parent="1">
          <mxGeometry x="521" y="1280" width="120" height="60" as="geometry" />
        </mxCell>
        <mxCell id="u0BOKyI3YEC1JE8kHhpO-56" value="Producer" style="rounded=0;whiteSpace=wrap;html=1;fillColor=#fff2cc;strokeColor=#d6b656;" vertex="1" parent="1">
          <mxGeometry x="-25" y="1110" width="120" height="60" as="geometry" />
        </mxCell>
        <mxCell id="u0BOKyI3YEC1JE8kHhpO-60" value="broker0" style="text;html=1;strokeColor=none;fillColor=none;align=center;verticalAlign=middle;whiteSpace=wrap;rounded=0;" vertex="1" parent="1">
          <mxGeometry x="180" y="995" width="60" height="30" as="geometry" />
        </mxCell>
        <mxCell id="u0BOKyI3YEC1JE8kHhpO-61" value="broker1" style="text;html=1;strokeColor=none;fillColor=none;align=center;verticalAlign=middle;whiteSpace=wrap;rounded=0;" vertex="1" parent="1">
          <mxGeometry x="180" y="1120" width="60" height="30" as="geometry" />
        </mxCell>
        <mxCell id="u0BOKyI3YEC1JE8kHhpO-62" value="broker2" style="text;html=1;strokeColor=none;fillColor=none;align=center;verticalAlign=middle;whiteSpace=wrap;rounded=0;" vertex="1" parent="1">
          <mxGeometry x="171.5" y="1280" width="60" height="30" as="geometry" />
        </mxCell>
        <mxCell id="u0BOKyI3YEC1JE8kHhpO-63" value="Kafka cluster" style="text;html=1;strokeColor=none;fillColor=none;align=center;verticalAlign=middle;whiteSpace=wrap;rounded=0;" vertex="1" parent="1">
          <mxGeometry x="110" y="940" width="60" height="30" as="geometry" />
        </mxCell>
        <mxCell id="u0BOKyI3YEC1JE8kHhpO-64" style="edgeStyle=none;rounded=0;orthogonalLoop=1;jettySize=auto;html=1;exitX=1;exitY=0.5;exitDx=0;exitDy=0;entryX=0;entryY=0.5;entryDx=0;entryDy=0;" edge="1" parent="1" source="u0BOKyI3YEC1JE8kHhpO-50" target="u0BOKyI3YEC1JE8kHhpO-55">
          <mxGeometry relative="1" as="geometry" />
        </mxCell>
        <mxCell id="u0BOKyI3YEC1JE8kHhpO-67" value="" style="rounded=0;whiteSpace=wrap;html=1;fillColor=#dae8fc;strokeColor=#6c8ebf;" vertex="1" parent="1">
          <mxGeometry x="920" y="940" width="140" height="130" as="geometry" />
        </mxCell>
        <mxCell id="u0BOKyI3YEC1JE8kHhpO-68" value="Consumer" style="rounded=0;whiteSpace=wrap;html=1;fillColor=#0050ef;fontColor=#ffffff;strokeColor=#001DBC;" vertex="1" parent="1">
          <mxGeometry x="930" y="980" width="120" height="25" as="geometry" />
        </mxCell>
        <mxCell id="u0BOKyI3YEC1JE8kHhpO-69" value="Consumer" style="rounded=0;whiteSpace=wrap;html=1;fillColor=#0050ef;fontColor=#ffffff;strokeColor=#001DBC;" vertex="1" parent="1">
          <mxGeometry x="930" y="1010" width="120" height="25" as="geometry" />
        </mxCell>
        <mxCell id="u0BOKyI3YEC1JE8kHhpO-70" value="Consumer" style="rounded=0;whiteSpace=wrap;html=1;fillColor=#0050ef;fontColor=#ffffff;strokeColor=#001DBC;" vertex="1" parent="1">
          <mxGeometry x="930" y="1040" width="120" height="25" as="geometry" />
        </mxCell>
        <mxCell id="u0BOKyI3YEC1JE8kHhpO-71" value="group" style="text;html=1;strokeColor=none;fillColor=none;align=center;verticalAlign=middle;whiteSpace=wrap;rounded=0;" vertex="1" parent="1">
          <mxGeometry x="950" y="950" width="60" height="30" as="geometry" />
        </mxCell>
        <mxCell id="u0BOKyI3YEC1JE8kHhpO-72" value="" style="rounded=0;whiteSpace=wrap;html=1;fillColor=#dae8fc;strokeColor=#6c8ebf;" vertex="1" parent="1">
          <mxGeometry x="920" y="1100" width="140" height="130" as="geometry" />
        </mxCell>
        <mxCell id="u0BOKyI3YEC1JE8kHhpO-73" value="Consumer" style="rounded=0;whiteSpace=wrap;html=1;fillColor=#0050ef;fontColor=#ffffff;strokeColor=#001DBC;" vertex="1" parent="1">
          <mxGeometry x="930" y="1140" width="120" height="25" as="geometry" />
        </mxCell>
        <mxCell id="u0BOKyI3YEC1JE8kHhpO-74" value="Consumer" style="rounded=0;whiteSpace=wrap;html=1;fillColor=#0050ef;fontColor=#ffffff;strokeColor=#001DBC;" vertex="1" parent="1">
          <mxGeometry x="930" y="1170" width="120" height="25" as="geometry" />
        </mxCell>
        <mxCell id="u0BOKyI3YEC1JE8kHhpO-75" value="Consumer" style="rounded=0;whiteSpace=wrap;html=1;fillColor=#0050ef;fontColor=#ffffff;strokeColor=#001DBC;" vertex="1" parent="1">
          <mxGeometry x="930" y="1200" width="120" height="25" as="geometry" />
        </mxCell>
        <mxCell id="u0BOKyI3YEC1JE8kHhpO-76" value="group" style="text;html=1;strokeColor=none;fillColor=none;align=center;verticalAlign=middle;whiteSpace=wrap;rounded=0;" vertex="1" parent="1">
          <mxGeometry x="950" y="1110" width="60" height="30" as="geometry" />
        </mxCell>
        <mxCell id="u0BOKyI3YEC1JE8kHhpO-77" value="" style="rounded=0;whiteSpace=wrap;html=1;fillColor=#dae8fc;strokeColor=#6c8ebf;" vertex="1" parent="1">
          <mxGeometry x="920" y="1260" width="140" height="130" as="geometry" />
        </mxCell>
        <mxCell id="u0BOKyI3YEC1JE8kHhpO-78" value="Consumer" style="rounded=0;whiteSpace=wrap;html=1;fillColor=#0050ef;fontColor=#ffffff;strokeColor=#001DBC;" vertex="1" parent="1">
          <mxGeometry x="930" y="1300" width="120" height="25" as="geometry" />
        </mxCell>
        <mxCell id="u0BOKyI3YEC1JE8kHhpO-79" value="Consumer" style="rounded=0;whiteSpace=wrap;html=1;fillColor=#0050ef;fontColor=#ffffff;strokeColor=#001DBC;" vertex="1" parent="1">
          <mxGeometry x="930" y="1330" width="120" height="25" as="geometry" />
        </mxCell>
        <mxCell id="u0BOKyI3YEC1JE8kHhpO-80" value="Consumer" style="rounded=0;whiteSpace=wrap;html=1;fillColor=#0050ef;fontColor=#ffffff;strokeColor=#001DBC;" vertex="1" parent="1">
          <mxGeometry x="930" y="1360" width="120" height="25" as="geometry" />
        </mxCell>
        <mxCell id="u0BOKyI3YEC1JE8kHhpO-81" value="group" style="text;html=1;strokeColor=none;fillColor=none;align=center;verticalAlign=middle;whiteSpace=wrap;rounded=0;" vertex="1" parent="1">
          <mxGeometry x="950" y="1270" width="60" height="30" as="geometry" />
        </mxCell>
        <mxCell id="u0BOKyI3YEC1JE8kHhpO-83" style="edgeStyle=none;rounded=0;orthogonalLoop=1;jettySize=auto;html=1;exitX=1;exitY=0.5;exitDx=0;exitDy=0;entryX=0.014;entryY=0.554;entryDx=0;entryDy=0;entryPerimeter=0;" edge="1" parent="1" source="u0BOKyI3YEC1JE8kHhpO-51" target="u0BOKyI3YEC1JE8kHhpO-77">
          <mxGeometry relative="1" as="geometry" />
        </mxCell>
        <mxCell id="u0BOKyI3YEC1JE8kHhpO-84" style="edgeStyle=none;rounded=0;orthogonalLoop=1;jettySize=auto;html=1;exitX=1;exitY=0.5;exitDx=0;exitDy=0;entryX=-0.043;entryY=0.5;entryDx=0;entryDy=0;entryPerimeter=0;" edge="1" parent="1" source="u0BOKyI3YEC1JE8kHhpO-52" target="u0BOKyI3YEC1JE8kHhpO-67">
          <mxGeometry relative="1" as="geometry" />
        </mxCell>
        <mxCell id="u0BOKyI3YEC1JE8kHhpO-85" value="Leader" style="rounded=0;whiteSpace=wrap;html=1;fillColor=#a20025;fontColor=#ffffff;strokeColor=#6F0000;" vertex="1" parent="1">
          <mxGeometry x="-20" y="940" width="110" height="40" as="geometry" />
        </mxCell>
        <mxCell id="u0BOKyI3YEC1JE8kHhpO-86" value="follower" style="rounded=0;whiteSpace=wrap;html=1;fillColor=#a20025;fontColor=#ffffff;strokeColor=#6F0000;" vertex="1" parent="1">
          <mxGeometry x="-25" y="1340" width="120" height="60" as="geometry" />
        </mxCell>
        <mxCell id="u0BOKyI3YEC1JE8kHhpO-89" value="" style="rounded=0;whiteSpace=wrap;html=1;" vertex="1" parent="1">
          <mxGeometry x="641" y="780" width="249" height="90" as="geometry" />
        </mxCell>
        <mxCell id="u0BOKyI3YEC1JE8kHhpO-90" value="ZK" style="rounded=0;whiteSpace=wrap;html=1;" vertex="1" parent="1">
          <mxGeometry x="660" y="810" width="50" height="40" as="geometry" />
        </mxCell>
        <mxCell id="u0BOKyI3YEC1JE8kHhpO-91" value="ZK" style="rounded=0;whiteSpace=wrap;html=1;" vertex="1" parent="1">
          <mxGeometry x="740.5" y="810" width="50" height="40" as="geometry" />
        </mxCell>
        <mxCell id="u0BOKyI3YEC1JE8kHhpO-92" value="ZK" style="rounded=0;whiteSpace=wrap;html=1;" vertex="1" parent="1">
          <mxGeometry x="810" y="810" width="50" height="40" as="geometry" />
        </mxCell>
        <mxCell id="u0BOKyI3YEC1JE8kHhpO-93" value="Zookeeper" style="text;html=1;strokeColor=none;fillColor=none;align=center;verticalAlign=middle;whiteSpace=wrap;rounded=0;" vertex="1" parent="1">
          <mxGeometry x="730" y="780" width="60" height="30" as="geometry" />
        </mxCell>
      </root>
    </mxGraphModel>
  </diagram>
</mxfile>
